<mxfile host="65bd71144e" modified="2020-12-23T08:51:30.786Z" agent="5.0 (Macintosh; Intel Mac OS X 10_15_6) AppleWebKit/537.36 (KHTML, like Gecko) Code/1.52.1 Chrome/83.0.4103.122 Electron/9.3.5 Safari/537.36" etag="Q9sYj6ylYU7VrSapiq9k" version="13.10.0" type="embed">
    <diagram id="t1EHEqjHJqykjr_R1YX-" name="Page-1">
        <mxGraphModel dx="1762" dy="1220" grid="1" gridSize="10" guides="1" tooltips="1" connect="1" arrows="1" fold="1" page="1" pageScale="1" pageWidth="827" pageHeight="1169" math="0" shadow="0">
            <root>
                <mxCell id="0"/>
                <mxCell id="1" parent="0"/>
                <mxCell id="2" value="SOURCE" style="rounded=0;whiteSpace=wrap;html=1;fontSize=16;fontStyle=1;fillColor=#aa00ff;strokeColor=#7700CC;fontColor=#ffffff;" parent="1" vertex="1">
                    <mxGeometry x="265" y="680" width="120" height="60" as="geometry"/>
                </mxCell>
                <mxCell id="4" value="" style="rounded=0;whiteSpace=wrap;html=1;fillColor=#0050ef;strokeColor=#001DBC;fontColor=#ffffff;" parent="1" vertex="1">
                    <mxGeometry x="220" y="170" width="380" height="400" as="geometry"/>
                </mxCell>
                <mxCell id="5" value="SINK" style="rounded=0;whiteSpace=wrap;html=1;fontSize=16;fontStyle=1;fillColor=#008a00;strokeColor=#005700;fontColor=#ffffff;" parent="1" vertex="1">
                    <mxGeometry x="435" y="680" width="120" height="60" as="geometry"/>
                </mxCell>
                <mxCell id="6" value="内存双端队列" style="shape=process;whiteSpace=wrap;html=1;backgroundOutline=1;fontSize=16;fillColor=#d80073;strokeColor=#A50040;fontColor=#ffffff;" parent="1" vertex="1">
                    <mxGeometry x="250" y="250" width="320" height="60" as="geometry"/>
                </mxCell>
                <mxCell id="11" value="" style="group" parent="1" vertex="1" connectable="0">
                    <mxGeometry x="245" y="370" width="160" height="180" as="geometry"/>
                </mxCell>
                <mxCell id="7" value="" style="rounded=0;whiteSpace=wrap;html=1;fontSize=16;fillColor=#dae8fc;strokeColor=#6c8ebf;" parent="11" vertex="1">
                    <mxGeometry width="160" height="180" as="geometry"/>
                </mxCell>
                <mxCell id="8" value="PutList" style="shape=process;whiteSpace=wrap;html=1;backgroundOutline=1;fontSize=16;fillColor=#f0a30a;strokeColor=#BD7000;fontColor=#ffffff;" parent="11" vertex="1">
                    <mxGeometry x="20" y="70" width="120" height="40" as="geometry"/>
                </mxCell>
                <mxCell id="9" value="TakeList" style="shape=process;whiteSpace=wrap;html=1;backgroundOutline=1;fontSize=16;fillColor=#e3c800;strokeColor=#B09500;fontColor=#ffffff;" parent="11" vertex="1">
                    <mxGeometry x="20" y="123" width="120" height="40" as="geometry"/>
                </mxCell>
                <mxCell id="10" value="Transaction" style="text;html=1;strokeColor=none;fillColor=none;align=center;verticalAlign=middle;whiteSpace=wrap;rounded=0;fontSize=18;" parent="11" vertex="1">
                    <mxGeometry x="30" y="15" width="100" height="30" as="geometry"/>
                </mxCell>
                <mxCell id="12" value="" style="group" parent="1" vertex="1" connectable="0">
                    <mxGeometry x="415" y="370" width="160" height="180" as="geometry"/>
                </mxCell>
                <mxCell id="13" value="" style="rounded=0;whiteSpace=wrap;html=1;fontSize=16;fillColor=#dae8fc;strokeColor=#6c8ebf;" parent="12" vertex="1">
                    <mxGeometry width="160" height="180" as="geometry"/>
                </mxCell>
                <mxCell id="14" value="PutList" style="shape=process;whiteSpace=wrap;html=1;backgroundOutline=1;fontSize=16;fillColor=#f0a30a;strokeColor=#BD7000;fontColor=#ffffff;" parent="12" vertex="1">
                    <mxGeometry x="20" y="70" width="120" height="40" as="geometry"/>
                </mxCell>
                <mxCell id="15" value="TakeList" style="shape=process;whiteSpace=wrap;html=1;backgroundOutline=1;fontSize=16;fillColor=#e3c800;strokeColor=#B09500;fontColor=#ffffff;" parent="12" vertex="1">
                    <mxGeometry x="20" y="123" width="120" height="40" as="geometry"/>
                </mxCell>
                <mxCell id="16" value="Transaction" style="text;html=1;strokeColor=none;fillColor=none;align=center;verticalAlign=middle;whiteSpace=wrap;rounded=0;fontSize=18;" parent="12" vertex="1">
                    <mxGeometry x="30" y="15" width="100" height="30" as="geometry"/>
                </mxCell>
                <mxCell id="17" value="MemoryChannel" style="text;html=1;strokeColor=none;fillColor=none;align=center;verticalAlign=middle;whiteSpace=wrap;rounded=0;fontSize=25;fontColor=#FFFFFF;fontStyle=1" parent="1" vertex="1">
                    <mxGeometry x="300" y="190" width="220" height="40" as="geometry"/>
                </mxCell>
                <mxCell id="18" value="" style="curved=1;endArrow=classic;html=1;fontSize=25;fontColor=#FFFFFF;exitX=0.5;exitY=0;exitDx=0;exitDy=0;entryX=1;entryY=0.5;entryDx=0;entryDy=0;strokeWidth=3;" parent="1" source="2" target="8" edge="1">
                    <mxGeometry width="50" height="50" relative="1" as="geometry">
                        <mxPoint x="30" y="640" as="sourcePoint"/>
                        <mxPoint x="290" y="600" as="targetPoint"/>
                        <Array as="points">
                            <mxPoint x="385" y="650"/>
                            <mxPoint x="400" y="600"/>
                            <mxPoint x="400" y="530"/>
                        </Array>
                    </mxGeometry>
                </mxCell>
                <mxCell id="19" value="put()" style="text;html=1;strokeColor=none;fillColor=none;align=center;verticalAlign=middle;whiteSpace=wrap;rounded=0;fontSize=16;fontColor=#000000;fontStyle=1" parent="1" vertex="1">
                    <mxGeometry x="325" y="590" width="80" height="30" as="geometry"/>
                </mxCell>
                <mxCell id="20" value="" style="curved=1;endArrow=classic;html=1;fontSize=16;fontColor=#000000;entryX=0.5;entryY=0;entryDx=0;entryDy=0;exitX=0;exitY=0.5;exitDx=0;exitDy=0;strokeWidth=3;" parent="1" source="15" target="5" edge="1">
                    <mxGeometry width="50" height="50" relative="1" as="geometry">
                        <mxPoint x="400" y="630" as="sourcePoint"/>
                        <mxPoint x="630" y="570" as="targetPoint"/>
                        <Array as="points">
                            <mxPoint x="420" y="570"/>
                            <mxPoint x="440" y="630"/>
                            <mxPoint x="460" y="660"/>
                        </Array>
                    </mxGeometry>
                </mxCell>
                <mxCell id="21" value="" style="curved=1;endArrow=classic;html=1;fontSize=16;fontColor=#000000;entryX=0;entryY=0.5;entryDx=0;entryDy=0;exitX=0;exitY=0.5;exitDx=0;exitDy=0;strokeWidth=3;strokeColor=#FF3399;" parent="1" source="8" target="6" edge="1">
                    <mxGeometry width="50" height="50" relative="1" as="geometry">
                        <mxPoint x="-160" y="640" as="sourcePoint"/>
                        <mxPoint x="-110" y="590" as="targetPoint"/>
                        <Array as="points">
                            <mxPoint x="250" y="460"/>
                            <mxPoint x="230" y="430"/>
                            <mxPoint x="230" y="300"/>
                        </Array>
                    </mxGeometry>
                </mxCell>
                <mxCell id="22" value="" style="curved=1;endArrow=classic;html=1;fontSize=16;fontColor=#000000;entryX=1;entryY=0.5;entryDx=0;entryDy=0;exitX=1;exitY=0.5;exitDx=0;exitDy=0;strokeWidth=3;strokeColor=#FF3399;" parent="1" source="6" target="15" edge="1">
                    <mxGeometry width="50" height="50" relative="1" as="geometry">
                        <mxPoint x="60" y="380" as="sourcePoint"/>
                        <mxPoint x="-110" y="590" as="targetPoint"/>
                        <Array as="points">
                            <mxPoint x="590" y="340"/>
                            <mxPoint x="600" y="460"/>
                        </Array>
                    </mxGeometry>
                </mxCell>
                <mxCell id="23" value="take()" style="text;html=1;strokeColor=none;fillColor=none;align=center;verticalAlign=middle;whiteSpace=wrap;rounded=0;fontSize=16;fontColor=#000000;fontStyle=1" parent="1" vertex="1">
                    <mxGeometry x="435" y="590" width="80" height="30" as="geometry"/>
                </mxCell>
            </root>
        </mxGraphModel>
    </diagram>
</mxfile>